<svg aria-hidden="true" style="position: absolute; width: 0; height: 0; overflow: hidden;" version="1.1" xmlns="http://www.w3.org/2000/svg" xmlns:xlink="http://www.w3.org/1999/xlink">
<defs>
<symbol id="icon-beauty" viewBox="0 0 32 32">
<path d="M5.74 26.67c0.286-0.471 0.703-0.833 1.192-1.035 0.126-0.054 0.256-0.092 0.39-0.115 0.069 0 0.146-0.012 0.213 0l0.197 0.017c0.262 0.031 0.515 0.079 0.769 0.13 1.004 0.219 1.992 0.466 2.984 0.675s1.985 0.392 2.982 0.497c0.992 0.121 1.992 0.152 2.989 0.094 1.972-0.106 3.943-0.709 5.469-2.049 0.763-0.679 1.413-1.492 1.925-2.403 0.504-0.941 0.918-1.933 1.237-2.962-0.183 1.086-0.497 2.141-0.934 3.14-0.463 1.008-1.097 1.915-1.871 2.674-0.788 0.757-1.708 1.34-2.706 1.715-0.993 0.366-2.029 0.581-3.078 0.639-2.088 0.118-4.147-0.24-6.132-0.771-0.995-0.262-1.972-0.589-2.944-0.889-0.242-0.075-0.484-0.147-0.726-0.199l-0.179-0.034c-0.061 0-0.112 0-0.17-0.014-0.119 0.010-0.236 0.031-0.352 0.063-0.238 0.068-0.465 0.175-0.672 0.317-0.217 0.137-0.413 0.31-0.58 0.512z"></path>
<path d="M6.677 19.88c1.033-1.322 2.236-2.478 3.573-3.436 0.669-0.486 1.366-0.926 2.088-1.317 0.73-0.381 1.483-0.708 2.254-0.978 0.777-0.264 1.574-0.455 2.382-0.569 0.808-0.119 1.625-0.145 2.438-0.079 0.405 0.030 0.808 0.081 1.208 0.154l0.889 0.209 0.291 0.094c0.772 0.242 1.517 0.572 2.223 0.985-0.752-0.266-1.521-0.475-2.301-0.625l-0.289-0.060-0.291-0.038-0.582-0.074c-0.392-0.019-0.78-0.070-1.17-0.055s-0.777 0.024-1.165 0.041c-0.388 0.017-0.773 0.077-1.156 0.156-0.768 0.125-1.525 0.32-2.263 0.581-1.488 0.515-2.916 1.21-4.257 2.071-1.365 0.863-2.66 1.846-3.871 2.941z"></path>
<path d="M9.448 26.368c0 0-0.876 1.497-0.558 3.034 0.040-0.041 0.558-1.795 1.315-1.881 0.159 0.344-0.119 2.095 0.448 2.866 0.040-0.043 0.24-2.78 0.878-2.566 0.359 0.341-0.24 1.754 0.477 2.821 0.040 0.043 0.318-2.403 0.838-2.403 0.399 0.384 0 2.138 1.156 3.421 0 0.041-0.399-2.823 0.199-3.378 0.199 0.939 0.798 2.907 1.994 3.633 0 0.043-1.241-2.388-0.838-3.505 0.399 0.855 1.476 2.523 2.832 3.164 0 0-1.792-2.523-1.355-3.292 0 0 1.954 3.335 3.867 3.205 0.078 0.043-1.994-0.512-2.393-3.248 0.358 0.769 2.113 2.994 4.066 2.607 0.040 0.043-2.552-0.983-2.751-2.948 0.52 0.812 2.433 2.864 4.107 2.436 0 0.043-2.464-1.115-2.83-3.018 0.518 0.836 2.711 2.547 4.904 1.821 0.040 0-3.072-0.043-3.585-2.095 0.040 0.084 2.24 2.133 4.665 0.274 0-0.019-3.549 0.368-3.708-1.43 0.558 0.428 3.19 1.603 4.346-0.48 0 0.053-2.193 0.961-3.228-0.502 0.672 0.341 2.63 0.598 3.547-0.899 0.040 0-2.476 0.038-2.711-0.601l-0.224-0.637c0 0-2.196 7.571-15.459 3.599z"></path>
<path d="M0.361 12.557c-0.208-0.356-0.383-1.523-0.358-2.568 0.017-0.495 0.074-0.988 0.17-1.473 0.285-1.357 2.872-4.406 10.252-6.672 4.526-1.389 7.423-2.278 11.413-1.627 3.592 0.606 6.963 2.247 9.753 4.748-3.308-0.508-6.67-0.464-9.965 0.13-10.436 1.886-20.166 9.332-21.264 7.462z"></path>
</symbol>
<symbol id="icon-down-arrow" viewBox="0 0 32 32">
<path stroke-linejoin="miter" stroke-linecap="round" stroke-miterlimit="4" stroke-width="2.9091" d="M2.909 4.364l13.371 22.788 14.227-22.788"></path>
</symbol>
<symbol id="icon-health" viewBox="0 0 35 32">
<path stroke-linejoin="miter" stroke-linecap="round" stroke-miterlimit="10" stroke-width="0.5983" d="M0.64 23.458c0 0 9.965-2.233 11.229-0.955s0 8.614 5.281 8.614 3.264-6.938 4.388-8.216c1.124-1.278 10.259-1.195 12.124 0.4"></path>
<path d="M17.15 28.436c1.213 0 2.196-1.054 2.196-2.355s-0.983-2.355-2.196-2.355c-1.213 0-2.196 1.054-2.196 2.355s0.983 2.355 2.196 2.355z"></path>
<path d="M18.152 26.644c-0.151-0.012-0.299-0.043-0.443-0.092-0.367-0.121-0.747-0.184-1.131-0.19h-0.333c-0.427-0-0.851-0.065-1.261-0.192-0.092-2.164 0.054-4.333 0.434-6.461 1.378-7.679 5.621-13.252 9.082-16.677-1.276 2.216-2.406 4.525-3.381 6.911-1.779 4.371-3.539 10.566-1.919 15.412-0.576 1.133-0.851 1.29-1.047 1.29z"></path>
<path d="M11.745 2.65c0.511 1.053 1.311 1.911 2.292 2.46-0.981 0.547-1.781 1.406-2.292 2.458-0.512-1.052-1.313-1.91-2.294-2.458 0.981-0.55 1.782-1.408 2.294-2.46zM11.745 0c0 1.355-0.502 2.655-1.396 3.614s-2.106 1.497-3.37 1.497c1.264 0 2.475 0.538 3.369 1.496s1.396 2.257 1.397 3.612c0-1.355 0.502-2.654 1.395-3.612s2.105-1.496 3.368-1.496c-1.263 0-2.473-0.537-3.367-1.494s-1.396-2.255-1.397-3.609v-0.007z"></path>
<path d="M6.147 12.759c0.312 0.569 0.754 1.044 1.285 1.378-0.531 0.335-0.973 0.81-1.285 1.38-0.312-0.57-0.755-1.045-1.287-1.38 0.532-0.334 0.975-0.808 1.287-1.378zM6.147 10.824c-0.001 0.879-0.327 1.722-0.906 2.343s-1.366 0.97-2.185 0.97c0.82 0 1.606 0.349 2.186 0.971s0.906 1.465 0.906 2.344c-0.001-0.878 0.322-1.721 0.9-2.343s1.361-0.974 2.18-0.977c-0.819 0-1.605-0.349-2.184-0.97s-0.905-1.464-0.905-2.343l0.009 0.005z"></path>
<path d="M29.071 12.154c0.312 0.57 0.755 1.045 1.287 1.38-0.532 0.334-0.975 0.808-1.287 1.378-0.311-0.57-0.753-1.044-1.285-1.378 0.531-0.334 0.974-0.81 1.285-1.38zM29.071 10.219c0 0.879-0.325 1.722-0.905 2.344s-1.365 0.971-2.185 0.972c0.406 0 0.808 0.086 1.183 0.252s0.716 0.411 1.003 0.719c0.287 0.308 0.514 0.673 0.67 1.076s0.235 0.833 0.235 1.269c0-0.879 0.326-1.723 0.906-2.344s1.366-0.971 2.186-0.971c-0.82 0-1.606-0.349-2.186-0.971s-0.906-1.465-0.906-2.344z"></path>
</symbol>
<symbol id="icon-left-arrow" viewBox="0 0 17 32">
<path stroke-linejoin="round" stroke-linecap="round" stroke-miterlimit="4" stroke-width="3.7647" d="M14.52 29.312l-11.187-12.585 11.187-12.585"></path>
</symbol>
<symbol id="icon-protection" viewBox="0 0 32 32">
<path stroke-linejoin="miter" stroke-linecap="butt" stroke-miterlimit="10" stroke-width="0.9231" d="M25.355 6.371c-1.418-0.874-1.834 0.196-2.988 0.029-3.181-0.465-4.181-3.323-6.203-3.323s-2.902 2.777-5.963 3.323c-1.201 0.213-1.733-0.733-3.099 0.056s-0.84 3.242-0.892 4.534c-0.432 9.824 8.848 16.708 10.11 17.616 1.062-0.747 10.76-7.792 10.11-17.616-0.086-1.304 0.341-3.745-1.075-4.618z"></path>
<path stroke-linejoin="miter" stroke-linecap="round" stroke-miterlimit="10" stroke-width="0.6154" d="M10.462 15.125l3.991 4.28 6.618-7.097"></path>
</symbol>
<symbol id="icon-right-arrow" viewBox="0 0 17 32">
<path stroke-linejoin="round" stroke-linecap="round" stroke-miterlimit="4" stroke-width="3.7647" d="M3.334 29.312l11.187-12.585-11.187-12.585"></path>
</symbol>
<symbol id="icon-time" viewBox="0 0 32 32">
<path d="M2.485 18.095c-0.516-1.622-0.743-3.334-0.67-5.046 0.014-0.432 0.051-0.863 0.109-1.291 0.051-0.43 0.135-0.854 0.25-1.269 0.219-0.834 0.506-1.645 0.856-2.426 1.42-3.154 3.872-5.638 6.889-6.978s6.389-1.443 9.472-0.288c3.083 1.154 5.663 3.485 7.247 6.548s2.062 6.643 1.343 10.060c-0.351 1.695-0.992 3.306-1.889 4.751s-2.031 2.703-3.346 3.715c-1.942 1.579-4.277 2.506-6.71 2.663s-4.854-0.461-6.96-1.778c-1.369-0.84-2.58-1.947-3.571-3.264 1.103 1.162 2.39 2.105 3.801 2.785 1.384 0.669 2.87 1.064 4.385 1.164 0.181 0.010 0.375 0.012 0.561 0.023 0.094 0 0.181 0 0.28 0h0.28c0.181 0.012 0.373 0 0.561 0s0.373-0.014 0.559-0.027c2.632-0.212 5.132-1.325 7.13-3.175s3.39-4.339 3.969-7.101c0.495-2.362 0.376-4.825-0.344-7.12s-2.012-4.335-3.737-5.897c-1.728-1.557-3.822-2.577-6.053-2.948s-4.514-0.079-6.601 0.844c-2.793 1.246-5.065 3.545-6.387 6.463-0.33 0.721-0.59 1.476-0.776 2.253-0.194 0.777-0.349 1.564-0.463 2.358-0.201 1.618-0.129 3.261 0.212 4.852 0.009 0.054-0 0.11-0.027 0.157s-0.069 0.081-0.118 0.096c-0.049 0.015-0.102 0.010-0.148-0.014s-0.082-0.066-0.101-0.117l-0.004 0.008z"></path>
<path d="M4.193 15.347l-1.723 1.9-2.47-0.010 4.184 4.384 0.009-6.274z"></path>
<path d="M13.692 14.836c0.475-3.028 0.95-6.055 1.424-9.083 0.22 2.717 0.438 5.434 0.655 8.151l5.632 6.257-7.711-5.325z"></path>
</symbol>
<symbol id="icon-email-black-18dp-1" viewBox="0 0 24 32">
<path d="M20 8h-16c-1.1 0-1.99 0.9-1.99 2l-0.010 12c0 1.1 0.9 2 2 2h16c1.1 0 2-0.9 2-2v-12c0-1.1-0.9-2-2-2zM19.6 12.25l-7.070 4.42c-0.32 0.2-0.74 0.2-1.060 0l-7.070-4.42c-0.25-0.16-0.4-0.43-0.4-0.72 0-0.67 0.73-1.070 1.3-0.72l6.7 4.19 6.7-4.19c0.57-0.35 1.3 0.050 1.3 0.72 0 0.29-0.15 0.56-0.4 0.72z"></path>
</symbol>
<symbol id="icon-arrow-down2" viewBox="0 0 32 32">
<path d="M27.414 19.414l-10 10c-0.781 0.781-2.047 0.781-2.828 0l-10-10c-0.781-0.781-0.781-2.047 0-2.828s2.047-0.781 2.828 0l6.586 6.586v-19.172c0-1.105 0.895-2 2-2s2 0.895 2 2v19.172l6.586-6.586c0.39-0.39 0.902-0.586 1.414-0.586s1.024 0.195 1.414 0.586c0.781 0.781 0.781 2.047 0 2.828z"></path>
</symbol>
<symbol id="icon-map-pin" viewBox="0 0 24 24">
<path d="M22 10c0-2.761-1.12-5.263-2.929-7.071s-4.31-2.929-7.071-2.929-5.263 1.12-7.071 2.929-2.929 4.31-2.929 7.071c0 0.569 0.053 1.128 0.15 1.676 0.274 1.548 0.899 3.004 1.682 4.32 2.732 4.591 7.613 7.836 7.613 7.836 0.331 0.217 0.765 0.229 1.109 0 0 0 4.882-3.245 7.613-7.836 0.783-1.316 1.408-2.772 1.682-4.32 0.098-0.548 0.151-1.107 0.151-1.676zM20 10c0 0.444-0.041 0.887-0.119 1.328-0.221 1.25-0.737 2.478-1.432 3.646-1.912 3.214-5.036 5.747-6.369 6.74-1.398-0.916-4.588-3.477-6.53-6.74-0.695-1.168-1.211-2.396-1.432-3.646-0.077-0.441-0.118-0.884-0.118-1.328 0-2.209 0.894-4.208 2.343-5.657s3.448-2.343 5.657-2.343 4.208 0.894 5.657 2.343 2.343 3.448 2.343 5.657zM16 10c0-1.104-0.449-2.106-1.172-2.828s-1.724-1.172-2.828-1.172-2.106 0.449-2.828 1.172-1.172 1.724-1.172 2.828 0.449 2.106 1.172 2.828 1.724 1.172 2.828 1.172 2.106-0.449 2.828-1.172 1.172-1.724 1.172-2.828zM14 10c0 0.553-0.223 1.051-0.586 1.414s-0.861 0.586-1.414 0.586-1.051-0.223-1.414-0.586-0.586-0.861-0.586-1.414 0.223-1.051 0.586-1.414 0.861-0.586 1.414-0.586 1.051 0.223 1.414 0.586 0.586 0.861 0.586 1.414z"></path>
</symbol>
<symbol id="icon-carbon_security" viewBox="0 0 32 32">
<path d="M14 16.59l-2.59-2.59-1.41 1.41 4 4 8-8-1.41-1.41-6.59 6.59z"></path>
<path d="M16 30l-6.176-3.293c-1.761-0.937-3.233-2.335-4.259-4.045s-1.567-3.667-1.565-5.662v-13c0.001-0.53 0.211-1.039 0.586-1.414s0.883-0.586 1.414-0.586h20c0.53 0.001 1.039 0.211 1.414 0.586s0.586 0.883 0.586 1.414v13c0.002 1.994-0.539 3.952-1.565 5.662s-2.498 3.109-4.259 4.045l-6.176 3.293zM6 4v13c-0.002 1.632 0.441 3.233 1.281 4.632s2.044 2.543 3.485 3.31l5.234 2.791 5.234-2.79c1.441-0.766 2.646-1.911 3.485-3.31s1.282-3.001 1.28-4.633v-13h-20z"></path>
</symbol>
<symbol id="icon-back-in-time" viewBox="0 0 20 20">
<path d="M11 1.799c-4.445 0-8.061 3.562-8.169 7.996v0.205h-2.372l3.594 3.894 3.494-3.894h-2.672v-0.205c0.107-3.303 2.808-5.945 6.125-5.945 3.386 0 6.131 2.754 6.131 6.15s-2.745 6.15-6.131 6.15c-1.357 0-2.611-0.445-3.627-1.193l-1.406 1.504c1.388 1.088 3.135 1.738 5.033 1.738 4.515 0 8.174-3.67 8.174-8.199s-3.659-8.201-8.174-8.201zM10 5v5c0 0.13 0.027 0.26 0.077 0.382s0.124 0.233 0.216 0.325l3.2 3.2c0.283-0.183 0.55-0.389 0.787-0.628l-2.28-2.279v-6h-2z"></path>
</symbol>
<symbol id="icon-bezpiecznie" viewBox="0 0 32 32">
<path d="M15.659 32l-0.182-0.122c-2.339-1.569-13.977-9.997-13.418-21.855 0.016-0.343-0.006-0.769-0.030-1.221-0.087-1.674-0.196-3.759 1.375-4.604 1.178-0.635 1.945-0.436 2.688-0.244 0.468 0.121 0.911 0.235 1.483 0.14 2.016-0.335 3.296-1.403 4.426-2.345 1.065-0.888 2.070-1.727 3.453-1.727 1.355 0 2.384 0.828 3.473 1.705 1.208 0.972 2.577 2.075 4.714 2.366 0.519 0.071 0.913-0.065 1.329-0.21 0.683-0.237 1.457-0.505 2.713 0.216 1.632 0.937 1.596 3.147 1.569 4.761-0.007 0.426-0.014 0.828 0.009 1.156 0.86 12.115-11.956 20.902-13.42 21.864l-0.183 0.12zM4.953 4.429c-0.356 0-0.747 0.088-1.235 0.351-1.203 0.647-1.106 2.5-1.028 3.988 0.024 0.469 0.047 0.911 0.030 1.287-0.529 11.224 10.292 19.337 12.943 21.15 2.083-1.404 13.745-9.801 12.94-21.142-0.025-0.356-0.018-0.773-0.011-1.214 0.025-1.53 0.057-3.434-1.237-4.177-0.996-0.571-1.513-0.392-2.167-0.165-0.449 0.156-0.958 0.332-1.635 0.24-2.319-0.316-3.764-1.479-5.039-2.506-1.039-0.836-1.937-1.559-3.059-1.559-1.144 0-2.017 0.729-3.029 1.573-1.194 0.996-2.548 2.126-4.742 2.49-0.71 0.117-1.266-0.026-1.756-0.153-0.329-0.085-0.636-0.164-0.974-0.164z"></path>
<path d="M14.279 20.669l-5.941-5.941c-0.388-0.388-0.388-1.016 0-1.403s1.016-0.387 1.403 0l4.538 4.538 7.985-7.985c0.388-0.387 1.016-0.387 1.403 0s0.388 1.016 0 1.403l-9.388 9.388z"></path>
</symbol>
<symbol id="icon-zdrowie" viewBox="0 0 32 32">
<path d="M15.961 30.785c-3.728 0-4.281-3.393-4.646-5.639-0.149-0.916-0.29-1.782-0.58-2.055-0.738-0.695-6.489 0.124-10.337 0.928-0.177 0.037-0.354-0.077-0.392-0.257s0.077-0.354 0.257-0.392c1.604-0.335 9.667-1.946 10.926-0.761 0.453 0.427 0.597 1.311 0.78 2.431 0.369 2.265 0.827 5.083 3.993 5.083 3.143 0 3.28-2.547 3.401-4.795 0.058-1.071 0.103-1.917 0.512-2.353 0.874-0.932 4.92-0.896 5.722-0.879 2.335 0.049 5.19 0.39 6.202 1.199 0.143 0.114 0.166 0.322 0.052 0.465s-0.322 0.166-0.465 0.052c-1.627-1.301-10.137-1.334-11.028-0.384-0.243 0.26-0.289 1.112-0.334 1.935-0.116 2.159-0.292 5.421-4.062 5.421z"></path>
<path d="M24.125 4.187c-1.707 1.92-2.896 4.189-4.145 7.39-3.105 7.956-2.355 12.403-2.084 12.933 0.129 0.253 0.214 0.491 0.382 0.968 0.039 0.112 0.134 0.367 0.149 0.712 0.002 0.051 0.004 0.106 0.004 0.159 0 1.41-1.143 2.551-2.554 2.551-1.209 0-2.22-0.836-2.487-1.964-0.042-0.188-0.068-0.386-0.068-0.587 0-0.033 0-0.066 0.004-0.099-0.090-1.77-0.009-3.772 0.408-5.931 1.764-9.162 8.299-14.786 11.018-16.865h0.002c-0 0.024-0.612 0.713-0.629 0.733z"></path>
<path d="M10.844 5.326c0.483 0.927 1.244 1.688 2.171 2.171-0.927 0.483-1.688 1.244-2.171 2.171-0.483-0.927-1.244-1.688-2.171-2.171 0.927-0.483 1.688-1.243 2.171-2.171zM10.844 2.987c0 2.491-2.020 4.511-4.511 4.511 2.491 0 4.511 2.020 4.511 4.511 0-2.491 2.019-4.511 4.51-4.511-2.491 0-4.51-2.019-4.51-4.511v0z"></path>
<path d="M5.545 14.244c0.295 0.503 0.715 0.923 1.217 1.217-0.503 0.295-0.923 0.715-1.217 1.217-0.295-0.503-0.715-0.923-1.217-1.217 0.503-0.295 0.923-0.715 1.217-1.217zM5.545 12.536c0 1.616-1.31 2.926-2.926 2.926 1.616 0 2.926 1.31 2.926 2.926 0-1.616 1.31-2.926 2.926-2.926-1.616 0-2.926-1.31-2.926-2.926v0z"></path>
<path d="M27.247 13.716c0.295 0.503 0.715 0.923 1.217 1.217-0.503 0.295-0.923 0.715-1.217 1.217-0.295-0.503-0.715-0.923-1.217-1.217 0.503-0.295 0.923-0.715 1.217-1.217zM27.247 12.008c0 1.616-1.31 2.926-2.926 2.926 1.616 0 2.926 1.31 2.926 2.926 0-1.616 1.31-2.926 2.926-2.926-1.616 0-2.926-1.31-2.926-2.926v0z"></path>
</symbol>
<symbol id="icon-face" viewBox="0 0 31 32">
<path d="M5.7 1.701c-0.638 0.98-1.11 2.168-1.302 3.262-0.182 1.027-0.135 3.164 0.073 3.423 0.031 0.036 0.119 0.067 0.197 0.067 0.223 0 0.254-0.15 0.171-0.752-0.093-0.638-0.062-2.085 0.062-2.707 0.197-1.022 0.731-2.303 1.317-3.179 0.337-0.503 0.342-0.571 0.021-0.571h-0.249l-0.29 0.456z"></path>
<path d="M19.314 1.317c-0.041 0.114-0.005 0.249 0.088 0.306 0.135 0.083 0.322 0 0.451-0.197l0.114-0.182h-0.311c-0.228 0-0.322 0.021-0.342 0.073z"></path>
<path d="M22.67 1.509c-0.073 0.14-0.239 0.389-0.373 0.555-0.14 0.161-0.311 0.379-0.389 0.477-0.161 0.202-0.913 0.892-1.26 1.151-1.286 0.954-2.847 1.613-4.829 2.023-0.415 0.083-1.255 0.259-1.867 0.389-0.612 0.124-1.556 0.322-2.101 0.43-0.539 0.114-1.276 0.264-1.634 0.342-1.587 0.332-2.811 0.996-3.848 2.085-0.529 0.56-0.851 1.011-1.203 1.68-0.275 0.519-0.586 1.463-0.685 2.064-0.093 0.565-0.093 1.717 0 2.282 0.15 0.908 0.648 2.142 1.157 2.863 0.259 0.373 0.477 0.633 1.826 2.168 2.002 2.287 2.759 3.288 3.299 4.357 0.581 1.157 0.648 2.183 0.207 3.060-0.067 0.13-0.166 0.28-0.228 0.332-0.171 0.156-0.13 0.192 0.218 0.176l0.322-0.016 0.166-0.337c0.264-0.529 0.342-0.918 0.311-1.556-0.047-1.105-0.565-2.215-1.763-3.786-0.539-0.711-0.892-1.125-2.427-2.884-0.7-0.799-1.4-1.639-1.551-1.862-0.809-1.198-1.224-2.816-1.089-4.237 0.052-0.539 0.083-0.679 0.28-1.364 0.498-1.686 1.748-3.153 3.376-3.952l0.467-0.228 0.031 4.32c0.021 3.682 0.041 4.383 0.109 4.735 0.207 1.011 0.477 1.748 0.939 2.557 0.55 0.959 0.664 1.079 4.554 4.709 1.52 1.421 1.737 1.603 2.116 1.805 0.565 0.29 0.949 0.363 1.898 0.368 1.4 0 1.935-0.202 2.878-1.089 0.218-0.197 0.799-0.736 1.297-1.193 0.493-0.456 0.996-0.918 1.11-1.032l0.213-0.202 0.031 0.98c0.036 1.017 0.057 1.25 0.182 1.992 0.083 0.493 0.405 1.53 0.617 1.981l0.135 0.301h0.259c0.14 0 0.254-0.016 0.254-0.031 0-0.021-0.093-0.249-0.207-0.513-0.228-0.539-0.534-1.582-0.628-2.126-0.036-0.202-0.078-0.97-0.093-1.712l-0.031-1.348 0.415-0.389c1.053-0.991 1.302-1.25 1.634-1.686 0.633-0.845 1.136-1.862 1.323-2.687 0.244-1.063 0.249-1.115 0.27-5.14l0.021-3.833 0.176 0.28c0.596 0.949 1.079 2.142 1.328 3.319 0.166 0.768 0.176 0.84 0.176 1.966 0 1.074-0.010 1.219-0.14 1.841-0.213 1.006-0.576 2.116-0.794 2.422-0.114 0.171-0.099 0.337 0.047 0.43 0.249 0.166 0.368 0 0.762-1.048 0.218-0.581 0.472-1.53 0.57-2.168 0.088-0.555 0.088-2.422 0-2.93-0.519-2.951-1.805-5.098-4.134-6.877-0.218-0.171-0.456-0.353-0.534-0.41-0.073-0.057-0.508-0.389-0.965-0.742-0.456-0.348-0.934-0.716-1.063-0.814s-0.482-0.373-0.788-0.612l-0.555-0.436 0.275-0.384c0.15-0.213 0.363-0.539 0.467-0.736l0.192-0.347h-0.301l-0.301 0.005-0.124 0.259zM22.934 3.719c0.674 0.519 1.395 1.068 2.038 1.571 0.145 0.109 0.493 0.379 0.778 0.596 0.685 0.519 1.561 1.297 1.867 1.654l0.244 0.285-0.026 4.217c-0.016 3.641-0.031 4.279-0.104 4.683-0.156 0.84-0.389 1.499-0.783 2.22-0.513 0.944-0.845 1.297-4.154 4.367-0.368 0.342-0.949 0.887-1.297 1.208-0.659 0.617-1.058 0.918-1.385 1.032-0.384 0.13-0.944 0.182-1.675 0.156-0.84-0.031-1.115-0.104-1.577-0.399-0.176-0.114-1.224-1.053-2.329-2.080-2.546-2.381-3.174-2.993-3.522-3.449-0.596-0.794-1.048-1.769-1.271-2.77l-0.119-0.545-0.016-4.45-0.016-4.445 0.145-0.057c0.083-0.031 0.482-0.124 0.897-0.213 0.415-0.083 1.255-0.259 1.867-0.384 0.612-0.13 1.452-0.301 1.867-0.384 1.499-0.301 2.479-0.529 3.138-0.731 1.727-0.539 3.122-1.328 4.263-2.406 0.166-0.156 0.332-0.27 0.368-0.259 0.031 0.010 0.394 0.275 0.799 0.581z"></path>
<path d="M12.162 8.169c-0.285 0.036-0.736 0.114-1.001 0.182-0.389 0.093-0.493 0.135-0.539 0.233-0.036 0.083-0.036 0.15 0.005 0.228 0.078 0.14 0.249 0.14 0.773 0.010 0.648-0.166 1.359-0.228 2.106-0.197 1.245 0.057 2.012 0.394 2.443 1.074 0.156 0.244 0.207 0.28 0.363 0.239 0.316-0.078 0.161-0.513-0.348-0.996-0.747-0.705-2.116-0.985-3.802-0.773z"></path>
<path d="M23.313 8.148c-0.975 0.124-1.794 0.56-2.199 1.172-0.088 0.13-0.161 0.306-0.161 0.379 0 0.327 0.348 0.332 0.513 0.010 0.213-0.41 0.659-0.716 1.38-0.944 0.28-0.088 0.539-0.119 1.141-0.14 0.799-0.026 1.229 0.021 2.194 0.228 0.477 0.104 0.596 0.073 0.622-0.15 0.021-0.176-0.052-0.223-0.555-0.353-0.902-0.228-2.075-0.311-2.936-0.202z"></path>
<path d="M10.964 11.866c-0.405 0.14-0.539 0.249-0.539 0.425 0 0.254 0.161 0.296 0.519 0.135 0.207-0.093 0.389-0.135 0.596-0.135 0.285 0 0.648 0.119 0.648 0.213 0 0.026-0.088 0.088-0.192 0.145-0.109 0.057-0.275 0.182-0.373 0.285-0.161 0.166-0.176 0.202-0.13 0.327 0.078 0.223 0.29 0.223 0.539-0.005 0.187-0.171 0.472-0.29 0.695-0.29 0.052 0 0.311 0.078 0.57 0.166 0.446 0.161 0.513 0.171 1.198 0.171 0.794 0 1.265-0.104 1.639-0.353 0.332-0.223 0.187-0.607-0.171-0.456-0.576 0.239-0.768 0.285-1.276 0.306-0.851 0.036-1.478-0.171-2.158-0.711-0.384-0.306-1.048-0.399-1.566-0.223z"></path>
<path d="M25.325 11.866c-0.145 0.052-0.322 0.135-0.389 0.182-0.809 0.596-1.12 0.716-1.893 0.752-0.648 0.026-0.918-0.021-1.38-0.233-0.316-0.145-0.405-0.14-0.524 0.052-0.124 0.197 0.213 0.43 0.877 0.612 0.612 0.166 1.426 0.124 2.090-0.099 0.265-0.093 0.534-0.166 0.596-0.166 0.233 0 0.519 0.114 0.705 0.29 0.109 0.099 0.249 0.176 0.306 0.176 0.124 0 0.27-0.13 0.27-0.233 0-0.124-0.316-0.441-0.56-0.565l-0.239-0.119 0.15-0.099c0.093-0.062 0.27-0.104 0.498-0.114 0.29-0.021 0.394 0 0.664 0.124l0.322 0.14 0.114-0.109c0.088-0.093 0.099-0.135 0.057-0.254-0.036-0.114-0.124-0.171-0.41-0.285-0.436-0.171-0.856-0.187-1.255-0.052z"></path>
<path d="M17.514 17.416c-0.13 0.14-0.109 0.228 0.083 0.41 0.565 0.539 1.629 0.545 2.23 0.016 0.213-0.187 0.239-0.306 0.099-0.43-0.13-0.119-0.202-0.109-0.415 0.052-0.488 0.368-1.094 0.368-1.582-0.005-0.207-0.161-0.301-0.166-0.415-0.041z"></path>
<path d="M17.634 19.288c-0.187 0.057-0.565 0.254-0.819 0.43-0.394 0.27-0.944 0.934-0.944 1.136 0 0.14 0.301 0.591 0.555 0.83 0.965 0.918 2.355 1.177 3.568 0.664 0.576-0.249 1.172-0.752 1.468-1.25l0.13-0.213-0.124-0.233c-0.389-0.736-1.468-1.463-2.064-1.395-0.13 0.016-0.342 0.062-0.472 0.104-0.213 0.067-0.259 0.067-0.519-0.021-0.301-0.099-0.565-0.114-0.778-0.052zM18.308 19.838c0.119 0.041 0.306 0.078 0.415 0.078s0.296-0.036 0.415-0.078c0.311-0.109 0.482-0.099 0.804 0.052 0.301 0.145 0.985 0.747 1.037 0.913 0.047 0.14-0.311 0.555-0.705 0.819-0.928 0.622-2.173 0.617-3.101 0-0.316-0.213-0.731-0.638-0.731-0.757 0-0.088 0.451-0.586 0.669-0.742 0.513-0.353 0.804-0.425 1.198-0.285z"></path>
<path d="M18.334 2.339c-0.83 0.654-1.753 1.12-2.681 1.354-0.814 0.202-0.959 0.316-0.711 0.565 0.13 0.13 0.218 0.119 1.11-0.14 0.918-0.27 1.929-0.809 2.588-1.385 0.306-0.264 0.353-0.379 0.197-0.519-0.14-0.124-0.213-0.109-0.503 0.124z"></path>
<path d="M6.027 6.447c-0.109 0.13-0.28 0.591-0.456 1.229-0.213 0.773-0.223 0.918-0.057 0.98 0.228 0.083 0.332-0.026 0.446-0.482 0.057-0.228 0.176-0.633 0.27-0.887 0.223-0.638 0.239-0.752 0.119-0.84s-0.249-0.088-0.322 0z"></path>
<path d="M0.316 19.055c-0.239 0.29 0.545 1.779 1.245 2.375 0.612 0.519 0.944 0.7 2.692 1.452 1.743 0.752 2.661 1.229 3.319 1.732 0.508 0.384 1.032 0.991 1.24 1.421 0.161 0.337 0.187 0.446 0.202 0.882 0.026 0.581 0.062 0.674 0.27 0.674 0.202 0 0.259-0.119 0.259-0.57 0-0.835-0.285-1.483-0.954-2.168-0.908-0.939-1.753-1.416-4.88-2.759-0.84-0.363-1.281-0.612-1.701-0.959-0.56-0.462-0.975-1.094-1.224-1.867-0.073-0.228-0.099-0.259-0.244-0.275-0.099-0.010-0.187 0.016-0.223 0.062z"></path>
</symbol>
<symbol id="icon-premium-icon-eyelash-mascara-2056936-1" viewBox="0 0 31 32">
<path d="M7.707 3.366c-0.078 0.088-0.088 0.332-0.073 3.044l0.016 2.951 0.145 0.43c0.182 0.534 0.394 0.928 0.721 1.343 0.389 0.493 0.757 0.783 1.613 1.255 0.161 0.093 0.296 0.176 0.296 0.192 0 0.021-0.041 0.124-0.451 1.188-0.84 2.189-0.913 2.406-1.027 3.164-0.062 0.415-0.078 1.131-0.078 3.558 0 1.67-0.016 3.050-0.031 3.070-0.016 0.016-0.124-0.078-0.233-0.202-0.254-0.296-0.415-0.425-0.773-0.648-0.674-0.415-1.188-0.539-2.064-0.503-0.519 0.026-0.664 0.052-1.006 0.187-1.281 0.519-2.121 1.582-2.266 2.884-0.145 1.281 0.373 2.474 1.442 3.288 0.259 0.197 0.897 0.472 1.276 0.555 1.815 0.384 3.579-0.638 4.139-2.406 0.109-0.332 0.109-0.467 0.145-4.932 0.026-3.9 0.041-4.647 0.114-4.979 0.078-0.384 0.259-0.949 0.519-1.608 0.067-0.187 0.239-0.628 0.368-0.985 0.135-0.358 0.301-0.778 0.373-0.939 0.067-0.161 0.124-0.316 0.124-0.348s0.036-0.093 0.083-0.135c0.104-0.109 1.172-0.119 1.25-0.021 0.031 0.036 0.15 0.337 0.275 0.664s0.29 0.773 0.373 0.985c0.446 1.157 0.721 1.945 0.83 2.386 0.036 0.156 0.067 1.789 0.093 4.901l0.031 4.668 0.135 0.405c0.7 2.075 3.039 3.024 4.984 2.023 0.814-0.42 1.416-1.141 1.732-2.069 0.124-0.358 0.14-0.488 0.14-1.032 0-0.524-0.026-0.685-0.135-1.022-0.358-1.084-1.094-1.867-2.147-2.277-0.358-0.145-0.493-0.166-1.058-0.187-0.768-0.031-1.105 0.036-1.748 0.353-0.316 0.156-0.539 0.322-0.856 0.622-0.233 0.223-0.43 0.41-0.441 0.41s-0.016-1.405-0.016-3.127c0-3.838 0-3.828-0.648-5.534-0.104-0.27-0.233-0.612-0.285-0.752-0.052-0.145-0.192-0.503-0.311-0.804-0.353-0.902-0.358-0.799 0.041-1.017 1.348-0.736 1.976-1.478 2.334-2.759l0.14-0.503v-2.806c0-2.692-0.005-2.816-0.099-2.92-0.119-0.135-0.348-0.14-0.462-0.016-0.067 0.073-0.088 0.228-0.099 0.685l-0.016 0.596h-6.846l-0.016-0.596c-0.010-0.456-0.031-0.612-0.099-0.685-0.109-0.119-0.337-0.119-0.451 0.005zM15.134 6.13l-0.016 0.794h-6.846l-0.016-0.794-0.016-0.788h6.908l-0.016 0.788zM15.113 8.324c0 0.399-0.031 0.866-0.067 1.037-0.14 0.659-0.617 1.426-1.167 1.883-0.14 0.114-0.513 0.348-0.835 0.524l-0.581 0.316h-1.514l-0.441-0.233c-0.705-0.368-0.98-0.565-1.333-0.949-0.363-0.389-0.664-0.934-0.799-1.437-0.119-0.436-0.171-1.784-0.073-1.846 0.041-0.026 1.551-0.042 3.444-0.031l3.371 0.010-0.005 0.726zM6.805 22.955c1.411 0.441 2.241 1.789 1.992 3.231-0.218 1.24-1.167 2.163-2.406 2.339-1.727 0.249-3.278-1.089-3.278-2.827 0-1.924 1.872-3.314 3.693-2.744zM18.344 22.976c1.162 0.405 1.924 1.473 1.929 2.702 0.016 2.090-2.158 3.49-4.051 2.614-1.245-0.576-1.909-1.971-1.577-3.293 0.28-1.094 1.063-1.836 2.287-2.147 0.244-0.062 1.094 0.016 1.411 0.124z"></path>
<path d="M25.605 3.361c-0.057 0.062-0.088 0.187-0.088 0.337v0.244h-0.373c-0.415 0-0.462 0.021-0.56 0.202-0.052 0.104-0.047 0.14 0.041 0.259 0.088 0.124 0.135 0.135 0.498 0.15l0.394 0.016v0.825h-0.617c-0.586 0-0.628 0.005-0.7 0.114-0.109 0.156-0.104 0.28 0.021 0.405 0.093 0.093 0.171 0.104 0.7 0.104h0.596v0.83h-0.596c-0.529 0-0.607 0.010-0.7 0.104-0.13 0.13-0.135 0.322-0.010 0.43 0.078 0.073 0.213 0.088 0.7 0.088h0.607v0.83h-0.586c-0.55 0-0.596 0.010-0.7 0.119-0.15 0.161-0.145 0.316 0.021 0.446 0.119 0.093 0.213 0.109 0.7 0.109h0.565v0.778h-0.332c-0.182 0-0.373 0.016-0.42 0.031-0.124 0.052-0.228 0.285-0.176 0.42 0.062 0.166 0.207 0.223 0.586 0.223h0.342v7.619l-1.027 0.016c-0.778 0.010-1.053 0.031-1.115 0.088-0.083 0.062-0.088 0.446-0.088 4.523v4.45l0.124 0.337c0.482 1.333 1.763 2.002 3.138 1.644 0.877-0.233 1.654-1.063 1.815-1.945 0.036-0.207 0.057-1.732 0.057-4.6v-4.294l-0.135-0.104c-0.13-0.104-0.207-0.109-1.141-0.109h-1.006l0.010-3.802 0.016-3.796 0.373-0.026c0.42-0.031 0.586-0.124 0.586-0.332 0-0.223-0.223-0.342-0.633-0.342h-0.358l0.016-0.379 0.016-0.373 0.602-0.026c0.674-0.031 0.773-0.073 0.773-0.342 0-0.28-0.13-0.332-0.819-0.332h-0.586l0.016-0.405 0.016-0.399 0.622-0.026c0.342-0.016 0.654-0.047 0.69-0.067 0.093-0.062 0.078-0.368-0.031-0.467-0.078-0.073-0.213-0.088-0.705-0.088h-0.607l0.016-0.405 0.016-0.399 0.622-0.026c0.342-0.016 0.654-0.047 0.69-0.067 0.073-0.052 0.083-0.337 0.010-0.451-0.036-0.062-0.197-0.083-0.685-0.104l-0.638-0.026-0.016-0.405-0.016-0.399h0.415c0.368 0 0.425-0.010 0.493-0.114 0.047-0.062 0.083-0.166 0.083-0.228 0-0.197-0.156-0.275-0.57-0.29l-0.389-0.016-0.026-0.275c-0.016-0.161-0.062-0.296-0.104-0.322-0.124-0.083-0.342-0.057-0.43 0.042zM27.773 22.898v4.149l-0.161 0.337c-0.202 0.43-0.42 0.674-0.794 0.902-0.97 0.591-2.241 0.182-2.744-0.892l-0.14-0.296-0.016-4.191-0.016-4.185 1.935 0.010 1.935 0.016v4.149z"></path>
</symbol>
<symbol id="icon-location" viewBox="0 0 23 32">
<path stroke-linejoin="round" stroke-linecap="round" stroke-miterlimit="4" stroke-width="1.4545" d="M11.636 30.479l1.136-1.28c1.289-1.477 2.449-2.878 3.481-4.21l0.852-1.124c3.557-4.792 5.336-8.595 5.336-11.407 0-6-4.837-10.865-10.805-10.865s-10.805 4.864-10.805 10.865c0 2.811 1.779 6.615 5.336 11.407l0.852 1.124c1.472 1.886 3.012 3.716 4.617 5.491z"></path>
<path stroke-linejoin="round" stroke-linecap="round" stroke-miterlimit="4" stroke-width="1.4545" d="M11.636 16.901c2.486 0 4.502-2.016 4.502-4.502s-2.016-4.502-4.502-4.502c-2.486 0-4.502 2.016-4.502 4.502s2.016 4.502 4.502 4.502z"></path>
</symbol>
<symbol id="icon-call" viewBox="0 0 32 32">
<path stroke-linejoin="miter" stroke-linecap="butt" stroke-miterlimit="10" stroke-width="1.1852" d="M29.596 24.097c-1.107-1.116-3.788-2.743-5.089-3.399-1.694-0.853-1.834-0.923-3.165 0.066-0.888 0.66-1.479 1.25-2.518 1.028s-3.298-1.472-5.276-3.443c-1.978-1.972-3.301-4.296-3.523-5.332s0.377-1.62 1.031-2.51c0.922-1.255 0.852-1.464 0.064-3.158-0.614-1.318-2.29-3.974-3.409-5.075-1.198-1.183-1.198-0.974-1.97-0.653-0.628 0.264-1.231 0.586-1.801 0.96-1.115 0.741-1.735 1.357-2.168 2.282s-0.627 3.094 1.608 7.155c2.236 4.062 3.805 6.138 7.051 9.376s5.743 4.978 9.393 7.025c4.515 2.529 6.247 2.036 7.175 1.603s1.546-1.046 2.289-2.161c0.375-0.569 0.697-1.171 0.962-1.799 0.321-0.769 0.531-0.769-0.655-1.966z"></path>
</symbol>
<symbol id="icon-instagram" viewBox="0 0 32 32">
<path stroke-linejoin="miter" stroke-linecap="butt" stroke-miterlimit="10" stroke-width="1.3061" d="M22.969 0.653h-14.087c-4.545 0-8.229 3.685-8.229 8.229v14.087c0 4.545 3.685 8.229 8.23 8.229h14.085c4.545 0 8.23-3.685 8.23-8.23v-14.086c0-4.545-3.684-8.229-8.229-8.229z"></path>
<path stroke-linejoin="miter" stroke-linecap="butt" stroke-miterlimit="10" stroke-width="1.3061" d="M15.925 23.299c4.072 0 7.373-3.301 7.373-7.373s-3.301-7.373-7.373-7.373c-4.072 0-7.373 3.301-7.373 7.373s3.301 7.373 7.373 7.373z"></path>
<path stroke-linejoin="miter" stroke-linecap="butt" stroke-miterlimit="4" stroke-width="0.6531" d="M26.132 6.973c0 0.692-0.561 1.253-1.253 1.253s-1.253-0.561-1.253-1.253 0.561-1.253 1.253-1.253c0.692 0 1.253 0.561 1.253 1.253z"></path>
</symbol>
</defs>
</svg>
